<svg width="7" height="4" viewBox="0 0 7 4" fill="none" xmlns="http://www.w3.org/2000/svg">
<path d="M3.49998 2.76986L6.2565 0.0687051C6.30325 0.0229177 6.35705 -7.66705e-09 6.41783 -6.94227e-09C6.47861 -6.21748e-09 6.53241 0.0228937 6.57907 0.0687051L6.92981 0.412398C6.97654 0.458233 7 0.510929 7 0.570342C7 0.629923 6.97654 0.682619 6.92981 0.728431L3.66133 3.93134C3.61458 3.97715 3.56078 4 3.5 4C3.4392 4 3.38542 3.97715 3.33867 3.93134L0.0701881 0.728599C0.0233632 0.682716 4.01872e-08 0.629971 4.08974e-08 0.570414C4.16068e-08 0.510929 0.0233632 0.458233 0.0701881 0.412422L0.420687 0.0687291C0.467438 0.022942 0.521265 9.62438e-05 0.582093 9.62446e-05C0.642823 9.62453e-05 0.6966 0.0229179 0.743351 0.0687291L3.49998 2.76986Z" fill="#4487FF"/>
</svg>
