<svg width="139" height="126" viewBox="0 0 139 126" fill="none" xmlns="http://www.w3.org/2000/svg">
<path d="M69.5002 126C68.6215 126 67.7375 125.79 66.9257 125.375C57.8502 120.669 47.7657 118.212 37.5299 118.212C27.2941 118.212 17.2096 120.669 8.13412 125.375C7.28604 125.812 6.3392 126.025 5.38454 125.993C4.42989 125.962 3.49948 125.686 2.68269 125.194C1.8659 124.702 1.19016 124.009 0.720362 123.182C0.250569 122.355 0.00250677 121.422 1.63145e-09 120.472V15.4457C-2.17271e-05 14.554 0.216919 13.6756 0.632312 12.8854C1.0477 12.0951 1.64922 11.4165 2.38554 10.9074C23.4078 -3.6358 51.6529 -3.6358 72.6806 10.9074C73.4153 11.4177 74.0152 12.0967 74.4296 12.8868C74.8439 13.6769 75.0603 14.5547 75.0604 15.4457V120.472C75.0605 121.198 74.9167 121.917 74.6373 122.588C74.3579 123.258 73.9483 123.868 73.432 124.381C72.9157 124.894 72.3028 125.302 71.6282 125.579C70.9536 125.857 70.2303 126 69.5002 126ZM37.5299 107.156C46.5521 107.155 55.4999 108.779 63.9399 111.949V18.4307C55.9861 13.6045 46.8481 11.0511 37.5299 11.0511C28.2117 11.0511 19.0737 13.6045 11.1199 18.4307V111.949C19.5599 108.779 28.5077 107.155 37.5299 107.156Z" fill="white"/>
<path d="M133.44 126C132.562 126 131.678 125.79 130.866 125.375C121.79 120.669 111.706 118.212 101.47 118.212C91.2343 118.212 81.1498 120.669 72.0743 125.375C70.7933 126.035 69.3049 126.175 67.9222 125.766C66.5395 125.357 65.3703 124.43 64.6604 123.182C64.1907 122.355 63.9426 121.422 63.9402 120.472V15.4457C63.9398 14.554 64.1565 13.6755 64.5719 12.8852C64.9873 12.0949 65.5889 11.4163 66.3254 10.9074C87.3477 -3.6358 115.592 -3.6358 136.62 10.9074C137.355 11.4177 137.955 12.0967 138.369 12.8868C138.784 13.6769 139 14.5547 139 15.4457V120.472C139 121.198 138.856 121.917 138.577 122.588C138.297 123.258 137.888 123.868 137.372 124.381C136.855 124.894 136.242 125.302 135.568 125.579C134.893 125.857 134.17 126 133.44 126ZM101.47 107.156C110.422 107.156 119.379 108.754 127.88 111.949V18.4307C119.926 13.6046 110.788 11.0513 101.47 11.0513C92.1519 11.0513 83.014 13.6046 75.0601 18.4307V111.949C83.5001 108.779 92.4479 107.155 101.47 107.156Z" fill="white"/>
</svg>
