<svg width="26" height="26" viewBox="0 0 26 26" fill="none" xmlns="http://www.w3.org/2000/svg">
<path d="M21.6341 10.833H4.30078V19.4997C4.30078 22.7497 5.38411 23.833 8.63411 23.833H17.3008C20.5508 23.833 21.6341 22.7497 21.6341 19.4997V10.833Z" stroke="#7BC486" stroke-width="2" stroke-miterlimit="10" stroke-linecap="round" stroke-linejoin="round"/>
<path d="M23.2913 7.58268V8.66602C23.2913 9.85768 22.7172 10.8327 21.1247 10.8327H4.87467C3.21717 10.8327 2.70801 9.85768 2.70801 8.66602V7.58268C2.70801 6.39102 3.21717 5.41602 4.87467 5.41602H21.1247C22.7172 5.41602 23.2913 6.39102 23.2913 7.58268Z" stroke="#7BC486" stroke-width="2" stroke-miterlimit="10" stroke-linecap="round" stroke-linejoin="round"/>
<path d="M12.6097 5.41624H6.62969C6.26135 5.0154 6.27219 4.3979 6.66219 4.0079L8.20052 2.46957C8.60135 2.06874 9.26219 2.06874 9.66302 2.46957L12.6097 5.41624Z" stroke="#7BC486" stroke-width="2" stroke-miterlimit="10" stroke-linecap="round" stroke-linejoin="round"/>
<path d="M19.3589 5.41624H13.3789L16.3256 2.46957C16.7264 2.06874 17.3872 2.06874 17.7881 2.46957L19.3264 4.0079C19.7164 4.3979 19.7272 5.0154 19.3589 5.41624Z" stroke="#7BC486" stroke-width="2" stroke-miterlimit="10" stroke-linecap="round" stroke-linejoin="round"/>
<path d="M9.68457 10.834V16.4023C9.68457 17.269 10.6379 17.7782 11.3637 17.3123L12.3821 16.6407C12.7504 16.4023 13.2162 16.4023 13.5737 16.6407L14.5379 17.2907C15.2529 17.7673 16.2171 17.2582 16.2171 16.3915V10.834H9.68457Z" stroke="#7BC486" stroke-width="2" stroke-miterlimit="10" stroke-linecap="round" stroke-linejoin="round"/>
</svg>
