<svg width="1754" height="138" viewBox="0 0 1754 138" fill="none" xmlns="http://www.w3.org/2000/svg">
<path fill-rule="evenodd" clip-rule="evenodd" d="M22.434 108.393C22.434 111.871 21.2769 114.604 18.9626 116.631C16.6669 118.639 13.9979 119.644 10.9557 119.644C7.93216 119.644 5.33788 118.695 3.21019 116.798C1.06384 114.902 0 112.205 0 108.728V13.2772C0 10.3577 0.989185 7.92167 2.9489 5.96914C4.90861 3.99802 7.29759 3.03108 10.1158 3.03108H54.984C62.8601 3.03108 69.6912 4.81627 75.477 8.40521C81.2628 11.9941 85.6488 16.6988 88.635 22.5192C91.6213 28.3396 93.0957 34.5133 93.0957 41.0031C93.0957 48.2926 91.2107 54.9497 87.4592 61.0119C83.6891 67.0554 78.1459 71.5369 70.8296 74.4564L93.2637 101.68C94.8501 104.023 95.634 106.441 95.634 108.895C95.634 111.926 94.5329 114.474 92.3492 116.538C90.1468 118.621 87.5339 119.644 84.4917 119.644C80.5722 119.644 77.1941 117.858 74.3758 114.269L48.9182 77.971H22.434V108.393ZM1421.28 111.48C1419.22 108.561 1416.78 106.794 1413.98 106.218C1411.16 105.641 1408.47 106.255 1405.9 108.059C1403.32 109.862 1401.7 112.261 1401.06 115.236C1400.41 118.212 1401.12 121.168 1403.17 124.106L1409.33 132.865C1411.39 135.803 1413.94 137.477 1416.98 137.886C1420.01 138.295 1422.83 137.607 1425.4 135.803C1427.98 134.018 1429.47 131.693 1429.9 128.885C1430.31 126.059 1429.49 123.177 1427.44 120.239L1421.28 111.48ZM1485.02 107.724C1485.02 111.313 1485.99 114.139 1487.96 116.203C1489.92 118.286 1492.48 119.327 1495.63 119.327C1498.79 119.327 1501.48 118.286 1503.73 116.203C1504.65 115.348 1505.4 114.381 1505.94 113.265L1563.09 71.3138V107.724C1563.09 111.313 1564.06 114.139 1566.04 116.203C1567.99 118.286 1570.55 119.327 1573.71 119.327C1576.86 119.327 1579.55 118.286 1581.81 116.203C1584.05 114.139 1585.17 111.313 1585.17 107.724V14.4487C1585.17 10.8598 1584.05 8.03325 1581.81 5.96914C1579.55 3.88645 1576.86 2.86372 1573.71 2.86372C1570.55 2.86372 1567.99 3.88645 1566.04 5.96914C1564.06 8.03325 1563.09 10.8784 1563.09 14.4487V43.3276L1507.09 84.4422V14.4487C1507.09 10.8598 1505.97 8.03325 1503.73 5.96914C1501.48 3.88645 1498.79 2.86372 1495.63 2.86372C1492.48 2.86372 1489.92 3.88645 1487.96 5.96914C1485.99 8.03325 1485.02 10.8784 1485.02 14.4487V107.724ZM1731.57 108.393C1731.57 111.871 1732.72 114.604 1735.04 116.631C1737.33 118.639 1740 119.644 1743.04 119.644C1746.07 119.644 1748.66 118.695 1750.79 116.798C1752.94 114.902 1754 112.205 1754 108.728V13.2772C1754 10.3577 1753.01 7.92167 1751.05 5.96914C1749.07 3.99802 1746.68 3.03108 1743.88 3.03108H1699.02C1691.14 3.03108 1684.31 4.81627 1678.52 8.40521C1672.74 11.9941 1668.35 16.6988 1665.36 22.5192C1662.38 28.3396 1660.9 34.5133 1660.9 41.0031C1660.9 48.2926 1662.79 54.9497 1666.54 61.0119C1670.31 67.0554 1675.85 71.5369 1683.17 74.4564L1660.74 101.68C1659.15 104.023 1658.37 106.441 1658.37 108.895C1658.37 111.926 1659.47 114.474 1661.65 116.538C1663.85 118.621 1666.47 119.644 1669.51 119.644C1673.43 119.644 1676.81 117.858 1679.62 114.269L1705.08 77.971H1731.57V108.393ZM1699.02 58.6503C1693.73 58.6503 1689.57 56.8651 1686.53 53.2761C1683.51 49.6872 1681.98 45.4846 1681.98 40.6684C1681.98 35.9637 1683.47 31.9099 1686.46 28.4883C1689.44 25.0668 1693.62 23.356 1699.02 23.356H1731.57V58.6503H1699.02ZM54.984 58.6503C60.2659 58.6503 64.4279 56.8651 67.4701 53.2761C70.4937 49.6872 72.0241 45.4846 72.0241 40.6684C72.0241 35.9637 70.531 31.9099 67.5448 28.4883C64.5586 25.0668 60.3778 23.356 54.984 23.356H22.434V58.6503H54.984ZM174.041 119.327C171.13 119.327 168.647 118.305 166.632 116.296C164.597 114.269 163.589 111.815 163.589 108.895V13.4446C163.589 10.4321 164.597 7.92167 166.632 5.96914C168.647 3.99802 171.13 3.03108 174.041 3.03108H234.606C238.32 3.03108 241.157 4.09102 243.117 6.22951C245.076 8.3494 246.065 10.8784 246.065 13.7793C246.065 16.8104 245.058 19.4137 243.023 21.5894C241.007 23.7837 238.208 24.8808 234.606 24.8808H186.023V50.0777H228.521C232.123 50.0777 234.904 51.1749 236.883 53.3691C238.842 55.5448 239.832 58.0924 239.832 61.0119C239.832 64.0243 238.842 66.6277 236.883 68.822C234.904 70.9977 232.123 72.0948 228.521 72.0948H186.023V97.3103H237.461C241.175 97.3103 244.106 98.4261 246.233 100.658C248.38 102.908 249.444 105.53 249.444 108.561C249.444 111.48 248.398 113.991 246.327 116.129C244.236 118.249 241.287 119.327 237.461 119.327H174.041ZM372.215 120.499C359.169 120.499 348.213 117.803 339.329 112.428C330.445 107.054 323.838 99.8207 319.508 90.7461C315.178 81.6715 313.013 71.537 313.013 60.3425C313.013 49.2409 315.29 39.125 319.844 29.9946C324.398 20.8642 331.154 13.5933 340.094 8.14484C349.034 2.71495 359.747 0 372.215 0C379.643 0 386.418 1.17151 392.54 3.53314C398.662 5.89477 404.784 9.6883 410.849 14.9694C411.969 16.0852 412.865 17.3682 413.537 18.8186C414.209 20.2877 414.545 21.7939 414.545 23.356C414.545 26.4986 413.481 29.1392 411.353 31.2591C409.095 33.1558 406.631 34.1228 403.925 34.1228C400.771 34.1228 398.083 32.9885 395.825 30.757C392.577 27.2796 389.087 24.8808 385.373 23.5233C381.659 22.1844 377.273 21.515 372.215 21.515C363.891 21.515 356.836 23.2816 351.05 26.8148C345.264 30.3293 340.934 35.034 338.06 40.9287C335.204 46.8049 333.767 53.2762 333.767 60.3425C333.767 67.5017 335.204 74.1403 338.06 80.2396C340.934 86.3575 345.264 91.2296 351.05 94.8743C356.836 98.5005 363.891 100.323 372.215 100.323C381.659 100.323 390.431 96.7525 398.531 89.5746C400.453 88.1242 402.637 87.3803 405.101 87.3803C406.911 87.3803 408.628 87.7894 410.252 88.5704C411.895 89.3514 413.145 90.3556 414.041 91.5829C415.627 93.7214 416.411 96.0086 416.411 98.4818C416.411 101.624 415.011 104.581 412.193 107.389C406.799 112.428 400.808 115.869 394.238 117.728C387.65 119.569 380.315 120.499 372.215 120.499ZM517.42 24.0254H487.913C484.423 24.0254 481.735 22.9654 479.813 20.8456C477.909 18.7071 476.938 16.1967 476.938 13.2772C476.938 10.3577 477.909 7.84732 479.813 5.70884C481.735 3.58895 484.423 2.52902 487.913 2.52902H567.682C571.285 2.52902 574.065 3.58895 576.044 5.70884C578.004 7.84732 578.993 10.3577 578.993 13.2772C578.993 16.1967 578.004 18.7071 576.044 20.8456C574.065 22.9654 571.285 24.0254 567.682 24.0254H539.687V108.895C539.687 112.373 538.604 115.088 536.402 117.059C534.218 119.011 531.53 119.997 528.395 119.997C525.465 119.997 522.908 119.011 520.724 117.059C518.522 115.088 517.42 112.373 517.42 108.895V24.0254ZM642.898 113.6C640.994 117.635 637.336 119.644 631.942 119.644C630.151 119.644 628.788 119.551 627.892 119.327C625.877 118.193 624.234 116.705 623.002 114.865C621.752 113.024 621.136 110.978 621.136 108.728C621.136 106.831 621.584 104.972 622.498 103.186L670.894 8.90727C672.033 6.6758 673.544 4.96502 675.448 3.7935C677.37 2.60339 679.386 2.0269 681.532 2.0269C683.66 2.0269 685.657 2.60339 687.505 3.7935C689.371 4.96502 690.808 6.6758 691.816 8.90727L739.372 103.186C740.287 104.86 740.734 106.664 740.734 108.561C740.734 111.703 739.521 114.344 737.095 116.464C734.687 118.584 731.962 119.644 728.92 119.644C727.016 119.644 725.262 119.141 723.694 118.137C722.108 117.133 720.82 115.627 719.812 113.6L712.384 98.8166H650.158L642.898 113.6ZM681.365 35.1269L660.61 76.6321H700.42L681.365 35.1269ZM814.588 119.327C811.564 119.327 809.082 118.342 807.178 116.371C805.256 114.418 804.304 111.926 804.304 108.895V13.4446C804.304 10.4321 805.256 7.92167 807.178 5.96914C809.082 3.99802 811.564 3.03108 814.588 3.03108H861.994C869.068 3.03108 875.19 4.48154 880.378 7.40103C885.548 10.3019 889.449 14.207 892.099 19.079C894.731 23.951 896.056 29.3066 896.056 35.1269C896.056 43.8668 892.958 50.9145 886.78 56.3072C893.312 58.8734 898.146 62.5739 901.282 67.3901C904.436 72.2064 906.004 77.8036 906.004 84.2005C906.004 90.8019 904.548 96.771 901.618 102.089C898.706 107.408 894.339 111.61 888.553 114.697C882.767 117.784 875.768 119.327 867.556 119.327H814.588ZM873.79 35.1269C873.79 32.2075 872.707 29.5483 870.505 27.1495C868.303 24.732 865.466 23.5233 861.994 23.5233H826.402V48.5715H861.994C865.69 48.5715 868.601 47.4186 870.673 45.1313C872.745 42.8255 873.79 39.4969 873.79 35.1269ZM867.556 98.8166C872.166 98.8166 875.768 97.3289 878.344 94.3722C880.938 91.3969 882.226 87.901 882.226 83.8658C882.226 79.8305 880.938 76.3532 878.344 73.4523C875.768 70.5328 872.166 69.0638 867.556 69.0638H826.402V98.8166H867.556ZM975.825 13.1099C975.825 10.1904 976.889 7.5312 979.036 5.13238C981.164 2.71496 983.926 1.52485 987.285 1.52485H1026.26C1033.8 1.52485 1040.7 3.16126 1047.01 6.47126C1053.3 9.78126 1058.36 14.6533 1062.18 21.0873C1066.01 27.5399 1067.91 35.2385 1067.91 44.2016C1067.91 52.7183 1066.01 60.1007 1062.18 66.386C1058.36 72.6527 1053.26 77.4131 1046.92 80.6673C1040.57 83.9216 1033.68 85.5394 1026.26 85.5394H998.092V107.724C998.092 111.313 997.084 114.139 995.049 116.203C993.034 118.286 990.439 119.327 987.285 119.327C984.262 119.327 981.593 118.249 979.278 116.129C976.983 113.991 975.825 111.201 975.825 107.724V13.1099ZM998.092 64.5265H1026.26C1029.97 64.5265 1033.37 63.5781 1036.46 61.6813C1039.54 59.7846 1041.99 57.2556 1043.8 54.1129C1045.59 50.9703 1046.49 47.6789 1046.49 44.2016C1046.49 38.2696 1044.53 33.193 1040.59 28.9904C1036.65 24.7878 1031.87 22.6865 1026.26 22.6865H998.092V64.5265ZM1148.19 113.6C1146.28 117.635 1142.63 119.644 1137.23 119.644C1135.42 119.644 1134.08 119.551 1133.18 119.327C1131.15 118.193 1129.52 116.705 1128.29 114.865C1127.04 113.024 1126.42 110.978 1126.42 108.728C1126.42 106.831 1126.87 104.972 1127.79 103.186L1176.18 8.90727C1177.32 6.6758 1178.83 4.96502 1180.74 3.7935C1182.66 2.60339 1184.68 2.0269 1186.8 2.0269C1188.95 2.0269 1190.95 2.60339 1192.79 3.7935C1194.66 4.96502 1196.1 6.6758 1197.11 8.90727L1244.66 103.186C1245.56 104.86 1246.02 106.664 1246.02 108.561C1246.02 111.703 1244.81 114.344 1242.38 116.464C1239.98 118.584 1237.25 119.644 1234.21 119.644C1232.31 119.644 1230.55 119.141 1228.98 118.137C1227.4 117.133 1226.11 115.627 1225.1 113.6L1217.67 98.8166H1155.45L1148.19 113.6ZM1186.63 35.1269L1165.9 76.6321H1205.71L1186.63 35.1269ZM1389.19 14.114C1389.19 10.5436 1390.33 7.69854 1392.57 5.63444C1394.83 3.55174 1397.46 2.52902 1400.5 2.52902C1403.42 2.52902 1405.95 3.53317 1408.08 5.54148C1410.23 7.56839 1411.29 10.4321 1411.29 14.114V74.9585C1411.29 84.9257 1408.9 93.4982 1404.13 100.658C1399.35 107.835 1393.08 113.209 1385.31 116.798C1377.57 120.387 1369.3 122.173 1360.53 122.173C1351.75 122.173 1343.47 120.387 1335.65 116.798C1327.83 113.209 1321.54 107.835 1316.76 100.658C1311.98 93.4982 1309.59 84.9257 1309.59 74.9585V14.114C1309.59 10.5436 1310.71 7.69854 1312.97 5.63444C1315.21 3.55174 1317.86 2.52902 1320.88 2.52902C1323.81 2.52902 1326.33 3.53317 1328.48 5.54148C1330.61 7.56839 1331.69 10.4321 1331.69 14.114V74.9585C1331.69 80.3326 1333.09 84.9443 1335.91 88.8122C1338.71 92.68 1342.37 95.5995 1346.86 97.552C1351.36 99.5232 1356.08 100.49 1361.03 100.49C1365.98 100.49 1370.59 99.5418 1374.86 97.6451C1379.13 95.7297 1382.59 92.8474 1385.24 88.9795C1387.89 85.1117 1389.19 80.4442 1389.19 74.9585V14.114Z" fill="white"/>
</svg>
