<svg width="20" height="24" viewBox="0 0 20 24" fill="none" xmlns="http://www.w3.org/2000/svg">
<g clip-path="url(#clip0_94_435)">
<path d="M8.84244 22.852L9.99505 23.9975L17.074 16.962C18.8795 15.1626 20 12.6797 20 9.93629C20 4.44945 15.5231 0 10 0C4.47687 0 0 4.44945 0 9.93875C0 12.6797 1.12046 15.1675 2.91862 16.9571C3.07198 17.1095 3.2748 17.198 3.50235 17.198C3.95251 17.198 4.3161 16.8366 4.3161 16.3892C4.3161 16.1631 4.21717 15.9566 4.06629 15.8066C2.56245 14.312 1.62503 12.2274 1.62503 9.93875C1.62503 5.34918 5.37967 1.61508 9.99753 1.61508C14.6154 1.61508 18.3725 5.34918 18.3725 9.93875C18.3725 12.2348 17.4326 14.3145 15.9164 15.8214L8.84244 22.852Z" fill="white"/>
<path d="M11.5978 11.901V12.8671H15.4613V11.901H14.7093L12.1518 5.47266L9.99501 9.22396L7.84067 5.47266L5.28069 11.901H4.53125V12.8671H8.39472V11.901H7.81841L8.37988 10.2958L9.99501 12.9409L11.6126 10.2958L12.1766 11.901H11.5978Z" fill="white"/>
</g>
<defs>
<clipPath id="clip0_94_435">
<rect width="20" height="24" fill="white"/>
</clipPath>
</defs>
</svg>
