<svg width="19" height="9" viewBox="0 0 19 9" fill="none" xmlns="http://www.w3.org/2000/svg">
<path d="M4.86424 4.85118L1.07685 8.85622C0.989247 8.94893 0.872312 9 0.747627 9C0.622941 9 0.506006 8.94893 0.418408 8.85622L0.139493 8.56135C-0.0419998 8.3692 -0.0419997 8.05691 0.139493 7.86506L3.31986 4.50187L0.135965 1.13494C0.0483671 1.04224 1.41299e-06 0.918651 1.43603e-06 0.786871C1.4591e-06 0.654945 0.0483671 0.531361 0.135965 0.438581L0.414881 0.143779C0.502548 0.0510722 0.619414 1.08302e-07 0.744099 1.30102e-07C0.868785 1.51903e-07 0.98572 0.0510723 1.07332 0.143779L4.86424 4.15248C4.95205 4.24548 5.00028 4.36965 5 4.50165C5.00028 4.63416 4.95205 4.75825 4.86424 4.85118Z" fill="black"/>
<path d="M11.8642 4.85118L8.07685 8.85622C7.98925 8.94893 7.87231 9 7.74763 9C7.62294 9 7.50601 8.94893 7.41841 8.85622L7.13949 8.56135C6.958 8.3692 6.958 8.05691 7.13949 7.86506L10.3199 4.50187L7.13596 1.13494C7.04837 1.04224 7 0.918651 7 0.786871C7 0.654945 7.04837 0.531361 7.13597 0.438581L7.41488 0.143779C7.50255 0.0510722 7.61941 1.08302e-07 7.7441 1.30102e-07C7.86878 1.51903e-07 7.98572 0.0510723 8.07332 0.143779L11.8642 4.15248C11.952 4.24548 12.0003 4.36965 12 4.50165C12.0003 4.63416 11.952 4.75825 11.8642 4.85118Z" fill="black" fill-opacity="0.5"/>
<path d="M18.8642 4.85118L15.0768 8.85622C14.9892 8.94893 14.8723 9 14.7476 9C14.6229 9 14.506 8.94893 14.4184 8.85622L14.1395 8.56135C13.958 8.3692 13.958 8.05691 14.1395 7.86506L17.3199 4.50187L14.136 1.13494C14.0484 1.04224 14 0.918651 14 0.786871C14 0.654945 14.0484 0.531361 14.136 0.438581L14.4149 0.143779C14.5025 0.0510722 14.6194 1.08302e-07 14.7441 1.30102e-07C14.8688 1.51903e-07 14.9857 0.0510723 15.0733 0.143779L18.8642 4.15248C18.952 4.24548 19.0003 4.36965 19 4.50165C19.0003 4.63416 18.952 4.75825 18.8642 4.85118Z" fill="black" fill-opacity="0.2"/>
</svg>
