<svg width="12" height="13" viewBox="0 0 12 13" fill="none" xmlns="http://www.w3.org/2000/svg">
<path d="M5.63681 2.3233C5.63122 2.31381 5.62484 2.30488 5.61776 2.29663C5.59516 2.26983 5.05472 1.63567 4.35314 1.03705C3.37938 0.206051 2.59917 -0.128061 2.03414 0.0439107C1.43958 0.224976 1.14727 0.950938 1.16531 2.20168C1.17804 3.07952 1.34053 3.89624 1.34749 3.93059C1.35606 3.9732 1.37783 4.01135 1.40918 4.0387C1.44053 4.06604 1.47956 4.08094 1.5198 4.08092H5.39602C5.41917 4.08092 5.44211 4.07598 5.4635 4.06638C5.4849 4.05678 5.50434 4.04271 5.52071 4.02496C5.53709 4.00721 5.55008 3.98615 5.55894 3.96296C5.5678 3.93977 5.57236 3.91492 5.57236 3.88982V2.68957C5.57236 2.62528 5.59854 2.57964 5.62041 2.55266C5.67244 2.48885 5.67893 2.39514 5.63681 2.3233ZM9.96586 0.0439107C9.40083 -0.128162 8.62062 0.206026 7.64686 1.03705C6.94528 1.6357 6.40484 2.26993 6.38215 2.29663C6.37509 2.30486 6.36879 2.31391 6.36319 2.32343L6.363 2.32374C6.3425 2.35867 6.33301 2.39988 6.33599 2.44117C6.33896 2.48245 6.35422 2.52156 6.37948 2.55263C6.40146 2.57964 6.42755 2.62528 6.42755 2.68955V3.88979C6.42755 3.94049 6.44612 3.98911 6.47919 4.02497C6.51226 4.06083 6.55711 4.08099 6.60389 4.08102H10.4802C10.5205 4.08102 10.5595 4.0661 10.5909 4.03874C10.6222 4.01137 10.644 3.97321 10.6525 3.93059C10.6595 3.89627 10.822 3.07952 10.8346 2.20168C10.8528 0.950938 10.5604 0.224976 9.96588 0.0439107H9.96586Z" fill="#FFDB56"/>
<path d="M1.2356 3.20178C1.28522 3.61812 1.34334 3.91034 1.34747 3.93059C1.35604 3.9732 1.37781 4.01135 1.40916 4.0387C1.4405 4.06604 1.47954 4.08094 1.51978 4.08092H5.39602C5.41917 4.08092 5.44211 4.07598 5.4635 4.06638C5.4849 4.05678 5.50434 4.04271 5.52071 4.02496C5.53709 4.00721 5.55008 3.98615 5.55894 3.96296C5.5678 3.93977 5.57236 3.91492 5.57236 3.88982L5.57236 3.20178H1.2356ZM6.42764 3.20178V3.88982C6.42764 3.91492 6.4322 3.93977 6.44106 3.96296C6.44992 3.98615 6.46291 4.00721 6.47929 4.02496C6.49566 4.04271 6.5151 4.05678 6.5365 4.06638C6.5579 4.07598 6.58083 4.08092 6.60398 4.08092H10.4802C10.5205 4.08094 10.5595 4.06604 10.5908 4.0387C10.6222 4.01135 10.644 3.9732 10.6525 3.93059C10.6567 3.91034 10.7148 3.61814 10.7644 3.20178H6.42764Z" fill="#F6C134"/>
<path d="M5.61776 2.29663C5.59516 2.26996 5.05472 1.63567 4.35314 1.03705C3.37938 0.206051 2.59917 -0.128061 2.03414 0.0439107C1.719 0.139854 1.48582 0.395652 1.34109 0.804064C1.33651 0.816978 1.33322 0.830392 1.3313 0.844072C1.30566 1.02783 1.35263 1.20336 1.47082 1.3659C1.76241 1.76675 2.5309 2.09898 3.7548 2.35341C4.64339 2.53808 5.4648 2.61566 5.47305 2.61634C5.50845 2.61963 5.54394 2.61125 5.57487 2.59231C5.6058 2.57336 5.63072 2.54473 5.64638 2.51016C5.66202 2.47559 5.66767 2.43671 5.66256 2.3986C5.65746 2.3605 5.64185 2.32495 5.61778 2.29663H5.61776ZM10.6688 0.844072C10.6668 0.830391 10.6635 0.816977 10.6589 0.804064C10.5142 0.395652 10.281 0.139955 9.96588 0.0439869C9.4008 -0.128061 8.62059 0.206051 7.64686 1.03705C6.94528 1.63577 6.40484 2.26993 6.38215 2.29663C6.35811 2.32498 6.34252 2.36054 6.33744 2.39865C6.33236 2.43676 6.33802 2.47565 6.35368 2.51021C6.36933 2.54478 6.39425 2.57342 6.42518 2.59237C6.45611 2.61133 6.49159 2.61972 6.52699 2.61644C6.53519 2.61566 7.35663 2.53815 8.24524 2.35341C9.46912 2.09908 10.2375 1.76687 10.5292 1.3659C10.6474 1.20336 10.6944 1.0278 10.6687 0.844072H10.6688Z" fill="#FF9F34"/>
<path d="M5.10298 1.73967C4.7787 1.699 4.27845 1.62744 3.75466 1.51849C2.53088 1.2642 1.76238 0.931887 1.4708 0.530993C1.46941 0.529113 1.46815 0.527234 1.46677 0.525252C1.41935 0.608495 1.37742 0.701364 1.34098 0.804064C1.33642 0.816981 1.33319 0.830396 1.3313 0.844072C1.30566 1.02783 1.35263 1.20336 1.47082 1.3659C1.76241 1.76675 2.53088 2.09898 3.75466 2.35341C4.64337 2.53808 5.4648 2.61566 5.47305 2.61634C5.50845 2.61963 5.54394 2.61125 5.57487 2.59231C5.6058 2.57336 5.63072 2.54473 5.64638 2.51016C5.66202 2.47559 5.66767 2.43671 5.66256 2.3986C5.65746 2.3605 5.64185 2.32495 5.61778 2.29663C5.60433 2.28076 5.40776 2.04998 5.10298 1.73967ZM10.6589 0.804064C10.6226 0.701466 10.5806 0.608495 10.5332 0.525252C10.5319 0.527234 10.5306 0.529113 10.5292 0.530993C10.2376 0.931887 9.46912 1.2642 8.24522 1.51849C7.72155 1.62747 7.2213 1.699 6.89702 1.73967C6.59227 2.04998 6.39562 2.28076 6.38215 2.29663C6.35811 2.32498 6.34252 2.36054 6.33744 2.39865C6.33236 2.43676 6.33801 2.47562 6.35367 2.51018C6.36933 2.54474 6.39425 2.57337 6.42518 2.59232C6.45611 2.61126 6.4916 2.61963 6.52699 2.61634C6.53519 2.61566 7.35663 2.53805 8.24524 2.35341C9.46912 2.09908 10.2375 1.76677 10.5292 1.3659C10.6474 1.20336 10.6944 1.0278 10.6688 0.844072C10.6668 0.830391 10.6635 0.816977 10.6589 0.804064Z" fill="#FB8F2D"/>
<path d="M6.23602 2.09977H5.76389C5.46387 2.09977 5.2197 2.3644 5.2197 2.68957V3.88982C5.21969 3.91491 5.22425 3.93976 5.23311 3.96295C5.24197 3.98614 5.25496 4.00721 5.27133 4.02495C5.2877 4.0427 5.30714 4.05677 5.32854 4.06638C5.34993 4.07598 5.37286 4.08092 5.39602 4.08092H6.60398C6.62714 4.08092 6.65007 4.07598 6.67146 4.06638C6.69286 4.05677 6.71229 4.0427 6.72867 4.02495C6.74504 4.00721 6.75803 3.98614 6.76689 3.96295C6.77575 3.93976 6.78031 3.91491 6.7803 3.88982V2.68957C6.7803 2.36443 6.53613 2.09977 6.23602 2.09977Z" fill="#FF9F34"/>
<path d="M5.2197 3.20178V3.88982C5.21969 3.91491 5.22425 3.93976 5.23311 3.96295C5.24197 3.98615 5.25495 4.00724 5.27132 4.025C5.28769 4.04275 5.30713 4.05684 5.32853 4.06645C5.34992 4.07606 5.37285 4.08101 5.39602 4.08102H6.60398C6.62714 4.08101 6.65008 4.07606 6.67147 4.06645C6.69287 4.05684 6.71231 4.04275 6.72868 4.025C6.74505 4.00724 6.75803 3.98615 6.76689 3.96295C6.77575 3.93976 6.78031 3.91491 6.7803 3.88982V3.20178H5.2197Z" fill="#FB8F2D"/>
<path d="M11.1456 5.79407H6.89913C6.85237 5.79408 6.80753 5.81422 6.77446 5.85005C6.7414 5.88589 6.72282 5.93449 6.72281 5.98517V12.8089C6.72282 12.8596 6.7414 12.9082 6.77446 12.944C6.80753 12.9799 6.85237 13 6.89913 13H11.1456C11.1688 13 11.1917 12.9951 11.2131 12.9855C11.2345 12.9759 11.254 12.9618 11.2703 12.944C11.2867 12.9263 11.2997 12.9052 11.3085 12.882C11.3174 12.8588 11.322 12.834 11.322 12.8089V5.98517C11.322 5.96008 11.3174 5.93523 11.3085 5.91204C11.2997 5.88885 11.2867 5.86778 11.2703 5.85004C11.2539 5.83229 11.2345 5.81822 11.2131 5.80861C11.1917 5.79901 11.1688 5.79407 11.1456 5.79407ZM5.10077 5.79407H0.854367C0.831212 5.79407 0.808282 5.79901 0.786889 5.80861C0.765495 5.81822 0.746056 5.83229 0.729683 5.85004C0.71331 5.86778 0.700322 5.88885 0.691462 5.91204C0.682602 5.93523 0.678044 5.96008 0.678047 5.98517V12.8089C0.678044 12.834 0.682602 12.8588 0.691462 12.882C0.700322 12.9052 0.71331 12.9263 0.729683 12.944C0.746056 12.9618 0.765495 12.9759 0.786889 12.9855C0.808282 12.9951 0.831212 13 0.854367 13H5.10077C5.12393 13 5.14686 12.9951 5.16826 12.9855C5.18965 12.9759 5.20909 12.9618 5.22547 12.944C5.24184 12.9263 5.25483 12.9052 5.26369 12.882C5.27254 12.8588 5.2771 12.834 5.27709 12.8089V5.98517C5.2771 5.96008 5.27254 5.93523 5.26368 5.91204C5.25482 5.88885 5.24183 5.86778 5.22546 5.85004C5.20908 5.83229 5.18965 5.81822 5.16825 5.80861C5.14686 5.79901 5.12393 5.79407 5.10077 5.79407Z" fill="#C43333"/>
<path d="M11.1456 5.79407H6.89913C6.85237 5.79408 6.80753 5.81422 6.77446 5.85005C6.7414 5.88589 6.72282 5.93449 6.72281 5.98517V6.67321H11.322V5.98517C11.322 5.96008 11.3174 5.93523 11.3085 5.91204C11.2997 5.88885 11.2867 5.86778 11.2703 5.85004C11.2539 5.83229 11.2345 5.81822 11.2131 5.80861C11.1917 5.79901 11.1688 5.79407 11.1456 5.79407ZM5.10077 5.79407H0.854367C0.831212 5.79407 0.808282 5.79901 0.786889 5.80861C0.765495 5.81822 0.746056 5.83229 0.729683 5.85004C0.71331 5.86778 0.700322 5.88885 0.691462 5.91204C0.682602 5.93523 0.678044 5.96008 0.678047 5.98517V6.67321H5.27709V5.98517C5.2771 5.96008 5.27254 5.93523 5.26368 5.91204C5.25482 5.88885 5.24183 5.86778 5.22546 5.85004C5.20908 5.83229 5.18965 5.81822 5.16825 5.80861C5.14686 5.79901 5.12393 5.79407 5.10077 5.79407Z" fill="#B23030"/>
<path d="M11.8237 3.69869H6.89913C6.85237 3.6987 6.80752 3.71884 6.77445 3.75468C6.74139 3.79052 6.72281 3.83913 6.72281 3.88982V5.98517C6.72281 6.03586 6.74139 6.08447 6.77445 6.12031C6.80752 6.15615 6.85237 6.17629 6.89913 6.1763H11.8237C11.8468 6.1763 11.8698 6.17136 11.8912 6.16176C11.9126 6.15215 11.932 6.13807 11.9484 6.12032C11.9647 6.10258 11.9777 6.08151 11.9866 6.05832C11.9954 6.03513 12 6.01027 12 5.98517V3.88984C12 3.86474 11.9954 3.83989 11.9866 3.8167C11.9777 3.79351 11.9647 3.77244 11.9484 3.75469C11.932 3.73694 11.9126 3.72286 11.8912 3.71326C11.8698 3.70366 11.8468 3.69872 11.8237 3.69872V3.69869ZM5.10077 3.69869H0.17632C0.153161 3.69869 0.130228 3.70363 0.108831 3.71324C0.0874344 3.72284 0.0679937 3.73692 0.0516196 3.75468C0.0352455 3.77243 0.0222589 3.7935 0.0134019 3.81669C0.00454479 3.83989 -9.2229e-06 3.86474 1.40233e-08 3.88984V5.9852C-6.14347e-06 6.0103 0.00455014 6.03515 0.0134086 6.05834C0.0222671 6.08153 0.0352541 6.1026 0.0516279 6.12035C0.0680017 6.1381 0.0874413 6.15218 0.108836 6.16178C0.130231 6.17139 0.153163 6.17633 0.17632 6.17632H5.10077C5.12393 6.17633 5.14686 6.17139 5.16826 6.16178C5.18965 6.15218 5.20909 6.1381 5.22547 6.12035C5.24184 6.1026 5.25483 6.08153 5.26368 6.05834C5.27254 6.03515 5.2771 6.01027 5.27709 5.98517L5.27709 3.88984C5.2771 3.86474 5.27254 3.83989 5.26368 3.8167C5.25483 3.79351 5.24184 3.77244 5.22547 3.75469C5.20909 3.73694 5.18965 3.72286 5.16826 3.71326C5.14686 3.70366 5.12393 3.69872 5.10077 3.69872V3.69869Z" fill="#F2433B"/>
<path d="M6.72281 5.29714V5.98517C6.72281 6.03586 6.74139 6.08447 6.77445 6.12031C6.80752 6.15615 6.85237 6.17629 6.89913 6.1763H11.8237C11.8468 6.1763 11.8698 6.17136 11.8912 6.16176C11.9126 6.15215 11.932 6.13807 11.9484 6.12032C11.9647 6.10258 11.9777 6.08151 11.9866 6.05832C11.9954 6.03513 12 6.01027 12 5.98517V5.29714H6.72281ZM1.40233e-08 5.29714V5.9852C-6.14347e-06 6.0103 0.00455014 6.03513 0.0134086 6.05832C0.0222671 6.08151 0.0352541 6.10258 0.0516279 6.12032C0.0680017 6.13807 0.0874413 6.15215 0.108836 6.16176C0.130232 6.17136 0.153163 6.17633 0.17632 6.17632H5.10077C5.12393 6.17633 5.14686 6.17136 5.16826 6.16176C5.18965 6.15215 5.20909 6.13807 5.22547 6.12032C5.24184 6.10258 5.25483 6.08151 5.26368 6.05832C5.27254 6.03513 5.2771 6.01027 5.27709 5.98517L5.27709 5.29714H1.40233e-08Z" fill="#D83636"/>
<path d="M6.89913 3.69869H5.10077C5.07761 3.69869 5.05468 3.70363 5.03328 3.71323C5.01188 3.72283 4.99244 3.73691 4.97607 3.75466C4.95969 3.77241 4.9467 3.79348 4.93784 3.81667C4.92898 3.83986 4.92442 3.86472 4.92443 3.88982V12.8089C4.92442 12.834 4.92898 12.8588 4.93784 12.882C4.9467 12.9052 4.95969 12.9263 4.97607 12.944C4.99244 12.9618 5.01188 12.9759 5.03328 12.9855C5.05468 12.9951 5.07761 13 5.10077 13H6.89913C6.9223 13 6.94524 12.9951 6.96664 12.9855C6.98805 12.9759 7.0075 12.9618 7.02388 12.944C7.04027 12.9263 7.05326 12.9052 7.06213 12.882C7.071 12.8588 7.07557 12.834 7.07557 12.8089V3.88984C7.07557 3.86474 7.071 3.83988 7.06213 3.81668C7.05326 3.79349 7.04027 3.77242 7.02388 3.75467C7.0075 3.73692 6.98805 3.72284 6.96664 3.71324C6.94524 3.70364 6.9223 3.69871 6.89913 3.69872V3.69869Z" fill="#FFDB56"/>
<path d="M6.89913 3.69869H6.2644V13H6.89913C6.9223 13 6.94524 12.9951 6.96664 12.9855C6.98805 12.9759 7.0075 12.9618 7.02388 12.944C7.04027 12.9263 7.05326 12.9052 7.06213 12.882C7.071 12.8588 7.07557 12.834 7.07557 12.8089V3.88984C7.07557 3.86474 7.071 3.83988 7.06213 3.81668C7.05326 3.79349 7.04027 3.77242 7.02388 3.75467C7.0075 3.73692 6.98805 3.72284 6.96664 3.71324C6.94524 3.70364 6.9223 3.69871 6.89913 3.69872V3.69869Z" fill="#F6C134"/>
</svg>
