<svg width="28" height="28" viewBox="0 0 28 28" fill="none" xmlns="http://www.w3.org/2000/svg">
<path d="M23.2985 11.667H4.63184V21.0003C4.63184 24.5003 5.7985 25.667 9.2985 25.667H18.6318C22.1318 25.667 23.2985 24.5003 23.2985 21.0003V11.667Z" stroke="white" stroke-width="2" stroke-miterlimit="10" stroke-linecap="round" stroke-linejoin="round"/>
<path d="M25.0832 8.16536V9.33203C25.0832 10.6154 24.4648 11.6654 22.7498 11.6654H5.24984C3.46484 11.6654 2.9165 10.6154 2.9165 9.33203V8.16536C2.9165 6.88203 3.46484 5.83203 5.24984 5.83203H22.7498C24.4648 5.83203 25.0832 6.88203 25.0832 8.16536Z" stroke="white" stroke-width="2" stroke-miterlimit="10" stroke-linecap="round" stroke-linejoin="round"/>
<path d="M13.5801 5.83302H7.14007C6.74341 5.40135 6.75507 4.73635 7.17507 4.31635L8.83174 2.65969C9.26341 2.22802 9.97507 2.22802 10.4067 2.65969L13.5801 5.83302Z" stroke="white" stroke-width="2" stroke-miterlimit="10" stroke-linecap="round" stroke-linejoin="round"/>
<path d="M20.8482 5.83204H14.4082L17.5815 2.65871C18.0132 2.22704 18.7249 2.22704 19.1565 2.65871L20.8132 4.31538C21.2332 4.73538 21.2449 5.40038 20.8482 5.83204Z" stroke="white" stroke-width="2" stroke-miterlimit="10" stroke-linecap="round" stroke-linejoin="round"/>
<path d="M10.4302 11.667V17.6637C10.4302 18.597 11.4568 19.1453 12.2385 18.6437L13.3352 17.9203C13.7318 17.6637 14.2335 17.6637 14.6185 17.9203L15.6568 18.6203C16.4268 19.1337 17.4652 18.5853 17.4652 17.652V11.667H10.4302Z" stroke="white" stroke-width="2" stroke-miterlimit="10" stroke-linecap="round" stroke-linejoin="round"/>
</svg>
