<svg width="22" height="22" viewBox="0 0 22 22" fill="none" xmlns="http://www.w3.org/2000/svg">
<path d="M11 0C4.93428 0 0 4.93429 0 11C0 17.0657 4.93428 22 11 22C13.6769 22 16.1386 21.0399 18.0471 19.4464C18.2069 19.3129 18.3073 19.1214 18.326 18.9139C18.3447 18.7065 18.2803 18.5001 18.1469 18.3401C18.0133 18.1803 17.8218 18.08 17.6144 18.0612C17.4069 18.0425 17.2005 18.107 17.0406 18.2404C15.3474 19.6581 13.2083 20.433 11 20.4286C5.78286 20.4286 1.57143 16.2171 1.57143 11C1.57143 5.78286 5.78286 1.57143 11 1.57143C16.2171 1.57143 20.4286 5.78286 20.4286 11C20.4286 12.5573 20.053 14.0211 19.3867 15.3136C19.3393 15.4053 19.3104 15.5055 19.3017 15.6083C19.2931 15.7112 19.3047 15.8148 19.3361 15.9132C19.3675 16.0115 19.418 16.1027 19.4846 16.1816C19.5513 16.2605 19.6328 16.3254 19.7246 16.3727C19.9097 16.4682 20.1252 16.4863 20.3237 16.4229C20.5222 16.3596 20.6873 16.22 20.7829 16.0349C21.5849 14.4778 22.0022 12.7514 22 11C22 4.93429 17.0657 0 11 0Z" fill="white"/>
<path d="M11 4.71429C10.7916 4.71429 10.5918 4.79707 10.4444 4.94442C10.2971 5.09177 10.2143 5.29162 10.2143 5.5V14.1429C10.2143 14.3512 10.2971 14.5511 10.4444 14.6984C10.5918 14.8458 10.7916 14.9286 11 14.9286C11.2084 14.9286 11.4082 14.8458 11.5556 14.6984C11.7029 14.5511 11.7857 14.3512 11.7857 14.1429V5.5C11.7857 5.29162 11.7029 5.09177 11.5556 4.94442C11.4082 4.79707 11.2084 4.71429 11 4.71429ZM11.7857 16.5C11.7857 16.7084 11.7029 16.9082 11.5556 17.0556C11.4082 17.2029 11.2084 17.2857 11 17.2857C10.7916 17.2857 10.5918 17.2029 10.4444 17.0556C10.2971 16.9082 10.2143 16.7084 10.2143 16.5C10.2143 16.2916 10.2971 16.0918 10.4444 15.9444C10.5918 15.7971 10.7916 15.7143 11 15.7143C11.2084 15.7143 11.4082 15.7971 11.5556 15.9444C11.7029 16.0918 11.7857 16.2916 11.7857 16.5Z" fill="white"/>
</svg>
