<svg class="spinner" width="26" height="26" viewBox="0 0 26 26" fill="none" xmlns="http://www.w3.org/2000/svg">
<g clip-path="url(#clip0_55_211)">
<path d="M11.9106 0H14.0896V3.99085H11.9106V0Z" fill="black"/>
<path d="M11.9106 22.0093H14.0896V26.0001H11.9106V22.0093Z" fill="black" fill-opacity="0.321569"/>
<path d="M15.4004 21.7548L17.4181 20.9312L18.9267 24.6269L16.909 25.4506L15.4004 21.7548Z" fill="black" fill-opacity="0.345098"/>
<path d="M15.3989 4.24551L16.9075 0.549805L18.9252 1.37348L17.4166 5.06913L15.3989 4.24551Z" fill="black" fill-opacity="0.580392"/>
<path d="M7.08252 24.6273L8.59113 20.9316L10.6088 21.7553L9.10021 25.451L7.08252 24.6273Z" fill="black" fill-opacity="0.27451"/>
<path d="M0.553223 16.907L4.24898 15.3984L5.07255 17.416L1.37684 18.9246L0.553223 16.907Z" fill="black" fill-opacity="0.211765"/>
<path d="M20.9336 8.58722L24.6293 7.07861L25.4528 9.09615L21.7572 10.6048L20.9336 8.58722Z" fill="black" fill-opacity="0.509804"/>
<path d="M0.553711 9.09615L1.37728 7.07861L5.07299 8.58717L4.24942 10.6047L0.553711 9.09615Z" fill="black" fill-opacity="0.141176"/>
<path d="M20.9336 17.4111L21.7572 15.3936L25.4528 16.9022L24.6292 18.9197L20.9336 17.4111Z" fill="black" fill-opacity="0.439216"/>
<path d="M18.5972 5.85964L21.4187 3.03809L22.9593 4.57869L20.1378 7.40025L18.5972 5.85964Z" fill="black" fill-opacity="0.533333"/>
<path d="M3.03564 21.4192L5.8572 18.5977L7.3978 20.1383L4.57625 22.9598L3.03564 21.4192Z" fill="black" fill-opacity="0.25098"/>
<path d="M3.03662 4.57825L4.57722 3.0376L7.39878 5.85916L5.85818 7.39976L3.03662 4.57825Z" fill="black" fill-opacity="0.0941176"/>
<path d="M18.5962 20.1422L20.1368 18.6016L22.9584 21.4232L21.4177 22.9638L18.5962 20.1422Z" fill="black" fill-opacity="0.392157"/>
<path d="M0 11.9106H3.99095V14.0896H0V11.9106Z" fill="black" fill-opacity="0.188235"/>
<path d="M22.0093 11.9106H26.0003V14.0896H22.0093V11.9106Z" fill="black" fill-opacity="0.462745"/>
</g>
<defs>
<clipPath id="clip0_55_211">
<rect width="26" height="26" fill="white"/>
</clipPath>
</defs>
</svg>
