<svg width="84" height="76" viewBox="0 0 84 76" fill="none" xmlns="http://www.w3.org/2000/svg">
<g clip-path="url(#clip0_2_3250)">
<path fill-rule="evenodd" clip-rule="evenodd" d="M82.6911 58.1313C71.4345 69.0585 56.1333 75.7766 39.2758 75.7766C32.3026 75.7766 25.597 74.625 19.3315 72.5046C15.8421 71.3907 17.1107 66.2679 20.9943 67.5356C26.7362 69.4791 32.8837 70.535 39.2758 70.535C54.7295 70.535 68.7534 64.3795 79.0751 54.3661C82.0064 51.4798 85.8181 55.0913 82.6911 58.1313ZM37.2448 0.226259C39.4455 0.226259 41.4678 0.583053 43.3118 1.29664C45.1586 2.01313 46.8128 3.08351 48.2741 4.50779C51.2112 7.36794 52.6784 10.9156 52.6784 15.1507C52.6784 16.865 52.4281 18.4808 51.9247 20.0008C51.4212 21.5208 50.6704 22.9334 49.6693 24.2388C48.6682 25.5412 47.506 26.6319 46.1856 27.5079C45.0752 28.2447 43.0701 29.4979 41.7469 29.9272C44.7933 36.5815 48.3115 40.6223 52.2584 44.9676C54.8071 47.7756 51.427 50.9548 48.6596 48.524C44.3158 44.7153 38.2632 35.6243 35.8928 30.3507C31.4799 30.3536 27.1389 30.3536 22.8095 30.3565V38.4293V46.4064C22.8152 48.2281 21.4373 49.429 20.0593 49.4203C18.6814 49.4116 17.3034 48.1962 17.3092 46.4064C17.3092 40.9704 17.3092 35.6591 17.3034 30.3623C12.577 30.3623 7.83331 30.3652 2.98892 30.3652C1.21399 30.3739 0.00865094 28.9844 2.08036e-05 27.595C-0.00573262 26.2055 1.18235 24.816 2.98892 24.8189C10.6151 24.8189 14.9359 24.8189 17.3006 24.8189C17.2977 20.1893 17.2977 15.5394 17.2977 10.7966C17.2891 9.00687 18.667 7.79145 20.0449 7.78275C21.4229 7.77695 22.8008 8.97496 22.7951 10.7966C22.7951 15.5713 22.8095 20.0269 22.8095 24.8073C25.7121 24.8073 30.5104 24.8044 38.3034 24.8044C38.3869 24.8044 38.4674 24.8073 38.548 24.8131C40.8091 24.5695 42.7278 23.6702 44.3071 22.1154C45.2392 21.1959 45.9411 20.1603 46.4071 19.0029C46.8732 17.8426 47.1091 16.5605 47.1091 15.1507C47.1091 13.7612 46.876 12.4907 46.41 11.342C45.944 10.1933 45.2421 9.15191 44.3043 8.21496C43.3665 7.28382 42.3136 6.58473 41.1428 6.11771C39.9691 5.65069 38.6688 5.41863 37.2448 5.41863C33.18 5.29969 33.18 0.107328 37.2448 0.226259Z" fill="black"/>
</g>
<defs>
<clipPath id="clip0_2_3250">
<rect width="84" height="76" fill="white"/>
</clipPath>
</defs>
</svg>
