<svg width="924" height="826" viewBox="0 0 924 826" fill="none" xmlns="http://www.w3.org/2000/svg">
<path fill-rule="evenodd" clip-rule="evenodd" d="M910.587 632.406C786.63 751.742 618.135 825.112 432.501 825.112C355.713 825.112 281.872 812.535 212.877 789.377C174.451 777.212 188.421 721.267 231.187 735.111C294.416 756.336 362.112 767.867 432.501 767.867C602.676 767.867 757.106 700.643 870.767 591.286C903.047 559.765 945.021 599.206 910.587 632.406ZM410.136 0.0219749C434.37 0.0219749 456.64 3.91854 476.945 11.7117C497.283 19.5365 515.498 31.2262 531.59 46.7807C563.933 78.0166 580.089 116.761 580.089 163.012C580.089 181.735 577.333 199.38 571.79 215.98C566.246 232.58 557.978 248.008 546.954 262.264C535.93 276.488 523.132 288.399 508.592 297.967C496.364 306.013 474.284 319.699 459.712 324.387C493.26 397.06 532.002 441.189 575.464 488.645C603.531 519.311 566.309 554.031 535.835 527.484C488.001 485.889 421.35 386.606 395.248 329.012C346.653 329.044 298.851 329.044 251.176 329.076V417.24V504.358C251.239 524.252 236.065 537.368 220.891 537.273C205.718 537.178 190.544 523.904 190.607 504.358C190.607 444.991 190.607 386.986 190.544 329.139C138.497 329.139 86.2596 329.171 32.9138 329.171C13.3684 329.266 0.0952633 314.091 0.000229087 298.917C-0.0631271 283.743 13.0199 268.568 32.9138 268.6C116.892 268.6 164.473 268.6 190.512 268.6C190.48 218.04 190.481 167.257 190.481 115.462C190.385 95.9155 205.559 82.6418 220.733 82.5468C235.907 82.4834 251.081 95.567 251.017 115.462C251.017 167.606 251.176 216.265 251.176 268.473C283.139 268.473 335.978 268.441 421.794 268.441C422.712 268.441 423.599 268.473 424.486 268.536C449.385 265.875 470.515 256.055 487.906 239.075C498.17 229.032 505.899 217.723 511.031 205.083C516.163 192.411 518.76 178.409 518.76 163.012C518.76 147.838 516.194 133.962 511.063 121.417C505.931 108.872 498.201 97.4994 487.874 87.267C477.547 77.0979 465.953 69.4632 453.06 64.3628C440.135 59.2624 425.817 56.7281 410.136 56.7281C365.375 55.4292 365.375 -1.27688 410.136 0.0219749Z" fill="#FAFAFA"/>
</svg>
