<svg width="28" height="28" viewBox="0 0 28 28" fill="none" xmlns="http://www.w3.org/2000/svg">
<path d="M23.3332 12.8333C23.3332 18.6203 17.8979 23.0485 15.3229 24.8217C14.9268 25.0944 14.7287 25.2308 14.4179 25.3073C14.1849 25.3646 13.8148 25.3646 13.5818 25.3073C13.271 25.2308 13.0729 25.0944 12.6768 24.8217C10.1018 23.0485 4.6665 18.6203 4.6665 12.8333C4.6665 7.67868 8.84518 3.5 13.9998 3.5C19.1545 3.5 23.3332 7.67868 23.3332 12.8333Z" stroke="white" stroke-width="2" stroke-linecap="round" stroke-linejoin="round"/>
<path d="M17.0314 12.8334C17.0314 14.5077 15.6741 15.8649 13.9998 15.8649C12.3256 15.8649 10.9683 14.5077 10.9683 12.8334C10.9683 11.1591 12.3256 9.80188 13.9998 9.80188C15.6741 9.80188 17.0314 11.1591 17.0314 12.8334Z" stroke="white" stroke-width="2" stroke-linecap="round" stroke-linejoin="round"/>
</svg>
