<svg width="28" height="28" viewBox="0 0 28 28" fill="none" xmlns="http://www.w3.org/2000/svg">
<path d="M7.00016 16.3333H8.75016M19.2588 16.3333H21.0088M24.5002 11.6667L25.6668 10.5M3.50016 11.6667L2.3335 10.5M23.9168 12.25L22.8849 7.82751C22.5243 6.2821 22.344 5.50939 21.9224 4.93318C21.5505 4.42488 21.0483 4.02637 20.4687 3.77966C19.8118 3.5 19.0183 3.5 17.4314 3.5H10.5689C8.98199 3.5 8.18853 3.5 7.53159 3.77966C6.95207 4.02637 6.44986 4.42488 6.07793 4.93318C5.65631 5.50939 5.47601 6.2821 5.11541 7.82751L4.0835 12.25H23.9168ZM22.5708 24.5H22.8841C23.8479 24.5 24.3298 24.5 24.6992 24.3154C25.0381 24.146 25.3128 23.8712 25.4822 23.5323C25.6668 23.163 25.6668 22.6811 25.6668 21.7173V17.85C25.6668 15.8898 25.6668 14.9097 25.2854 14.161C24.9498 13.5025 24.4144 12.967 23.7558 12.6315C23.0071 12.25 22.027 12.25 20.0668 12.25H7.9335C5.97331 12.25 4.99322 12.25 4.24453 12.6315C3.58596 12.967 3.05053 13.5025 2.71497 14.161C2.3335 14.9097 2.3335 15.8898 2.3335 17.85V21.7173C2.3335 22.6811 2.3335 23.163 2.51811 23.5323C2.68748 23.8712 2.96226 24.146 3.30115 24.3154C3.67054 24.5 4.15242 24.5 5.11619 24.5H5.42949C5.80015 24.5 5.98549 24.5 6.15243 24.4672C6.61814 24.3758 7.02674 24.0992 7.28458 23.7007C7.377 23.5579 7.44584 23.3858 7.5835 23.0417C7.72116 22.6975 7.78999 22.5254 7.88242 22.3826C8.14025 21.9842 8.54886 21.7075 9.01456 21.6161C9.18151 21.5833 9.36684 21.5833 9.7375 21.5833H18.2628C18.6335 21.5833 18.8188 21.5833 18.9858 21.6161C19.4515 21.7075 19.8601 21.9842 20.1179 22.3826C20.2103 22.5254 20.2792 22.6975 20.4168 23.0417C20.5545 23.3858 20.6233 23.5579 20.7157 23.7007C20.9736 24.0992 21.3822 24.3758 21.8479 24.4672C22.0148 24.5 22.2002 24.5 22.5708 24.5Z" stroke="white" stroke-width="2" stroke-linecap="round" stroke-linejoin="round"/>
</svg>
