<svg width="14" height="22" viewBox="0 0 14 22" fill="none" xmlns="http://www.w3.org/2000/svg">
<g clip-path="url(#clip0_2_3308)">
<path d="M9.88627 21.9893H3.87166C3.83396 21.9785 3.79089 21.9571 3.7532 21.9517C1.63166 21.6727 0.0108879 19.8805 0.0055033 17.7556C0.00011869 13.2483 0.00011869 8.74097 0.0055033 4.23366C0.0108879 2.44146 1.18473 0.826341 2.88089 0.252195C3.20396 0.144878 3.5432 0.0858537 3.87166 0C5.87473 0 7.8832 0 9.88627 0C9.92396 0.0107317 9.96704 0.0321951 10.0047 0.037561C11.787 0.273659 13.214 1.5561 13.634 3.30537C13.677 3.49317 13.7147 3.68098 13.7524 3.86341V18.1205C13.7417 18.158 13.7201 18.201 13.7147 18.2385C13.4563 19.8966 12.5463 21.0556 10.9955 21.6888C10.6455 21.8337 10.2578 21.8873 9.88627 21.9839V21.9893ZM12.0347 11.0161C12.0347 8.80537 12.0347 6.59463 12.0347 4.3839C12.0347 2.83854 10.9147 1.71707 9.36396 1.71707C7.71089 1.71707 6.05781 1.71707 4.40473 1.71707C2.8432 1.71707 1.7232 2.83317 1.7232 4.38927C1.7232 8.78927 1.7232 13.1893 1.7232 17.5946C1.7232 19.1561 2.8432 20.2722 4.39935 20.2722C6.04704 20.2722 7.69473 20.2722 9.33704 20.2722C10.9147 20.2722 12.0293 19.1615 12.0293 17.5893C12.0293 15.4 12.0293 13.2107 12.0293 11.0215L12.0347 11.0161Z" fill="#252A36"/>
<path d="M6.88672 3.43457C7.16672 3.43457 7.44672 3.43457 7.72134 3.43457C8.22211 3.43994 8.59903 3.81555 8.59365 4.30384C8.59365 4.77603 8.21672 5.14628 7.72672 5.15164C7.16134 5.15701 6.59595 5.15701 6.03057 5.15164C5.5298 5.15164 5.15288 4.7653 5.15826 4.28238C5.15826 3.81018 5.53518 3.43994 6.02518 3.43457C6.31057 3.43457 6.59595 3.43457 6.88134 3.43457H6.88672Z" fill="#252A36"/>
<path d="M6.88177 18.5554C6.60177 18.5554 6.32177 18.5554 6.04715 18.5554C5.541 18.55 5.16408 18.1852 5.15869 17.7022C5.15869 17.2193 5.53561 16.8437 6.03638 16.8383C6.60177 16.8383 7.16715 16.833 7.73254 16.8383C8.22254 16.8383 8.59408 17.2139 8.59946 17.6915C8.59946 18.1637 8.22792 18.5447 7.74331 18.5554C7.45792 18.5608 7.17254 18.5554 6.88715 18.5554H6.88177Z" fill="#252A36"/>
</g>
<defs>
<clipPath id="clip0_2_3308">
<rect width="14" height="22" fill="white"/>
</clipPath>
</defs>
</svg>
