<svg width="20" height="21" viewBox="0 0 20 21" fill="none" xmlns="http://www.w3.org/2000/svg">
<path d="M19.1383 10.5008L19.9318 8.03747C20.1018 7.51187 19.9192 6.94195 19.4721 6.619L17.3876 5.09921L16.594 2.63588C16.5128 2.38128 16.353 2.15932 16.1379 2.00219C15.9227 1.84506 15.6634 1.76093 15.3975 1.76201H12.8218L10.7373 0.242216C10.2964 -0.0807388 9.69815 -0.0807388 9.25731 0.242216L7.1728 1.76201H4.59707C4.33147 1.7622 4.07272 1.84682 3.85782 2.00377C3.64292 2.16072 3.48286 2.38197 3.40052 2.63588L2.60702 5.09921L0.522508 6.619C0.0816738 6.94195 -0.107255 7.51187 0.0627809 8.03747L0.856282 10.5008L0.0627809 12.9641C-0.107255 13.4897 0.0753761 14.0596 0.522508 14.3826L2.60702 15.9024L3.40052 18.3657C3.57056 18.8913 4.04918 19.2396 4.59707 19.2396H7.1728L9.25731 20.7594C9.47773 20.924 9.73593 21 10.0004 21C10.2649 21 10.5168 20.9177 10.7436 20.7594L12.8281 19.2396H15.4038C15.6694 19.2394 15.9281 19.1548 16.143 18.9978C16.358 18.8409 16.518 18.6196 16.6003 18.3657L17.3938 15.9024L19.4784 14.3826C19.9192 14.0596 20.1081 13.4897 19.9381 12.9641L19.1446 10.5008H19.1383ZM17.9417 10.8934L18.7352 13.3567L16.6507 14.8765C16.4366 15.0348 16.2729 15.2565 16.191 15.5098L15.3975 17.9731H12.8218C12.5573 17.9731 12.2991 18.0554 12.0787 18.2137L9.99414 19.7335L7.90962 18.2137C7.6955 18.0554 7.4373 17.9731 7.1728 17.9731H4.59707L3.80357 15.5098C3.7217 15.2565 3.56426 15.0348 3.34384 14.8765L1.25933 13.3567L2.05283 10.8934C2.1347 10.6401 2.1347 10.3678 2.05283 10.1082L1.25933 7.64485L3.34384 6.12507C3.55796 5.96675 3.7217 5.74512 3.80357 5.49182L4.59707 3.0285H7.1728C7.4373 3.0285 7.6955 2.94617 7.91592 2.78786L10.0004 1.26807L12.0849 2.78786C12.2991 2.94617 12.5573 3.0285 12.8218 3.0285H15.3975L16.191 5.49182C16.2729 5.74512 16.4303 5.96675 16.6507 6.12507L18.7352 7.64485L17.9417 10.1082C17.8599 10.3615 17.8599 10.6338 17.9417 10.8934ZM14.2324 7.51821C14.478 7.76517 14.478 8.16412 14.2324 8.41108L9.19434 13.477C9.06839 13.6037 8.91094 13.6607 8.74721 13.6607C8.58347 13.6607 8.42603 13.5974 8.30008 13.477L5.78102 10.9441C5.72272 10.8854 5.67647 10.8158 5.64492 10.7392C5.61336 10.6626 5.59712 10.5805 5.59712 10.4976C5.59712 10.4147 5.61336 10.3326 5.64492 10.256C5.67647 10.1794 5.72272 10.1098 5.78102 10.0512C5.83933 9.99256 5.90855 9.94605 5.98473 9.91433C6.0609 9.8826 6.14255 9.86627 6.22501 9.86627C6.30746 9.86627 6.38911 9.8826 6.46529 9.91433C6.54147 9.94605 6.61069 9.99256 6.66899 10.0512L8.74091 12.1346L13.3319 7.51821C13.3901 7.4595 13.4593 7.41293 13.5355 7.38115C13.6117 7.34937 13.6934 7.33302 13.7759 7.33302C13.8583 7.33302 13.94 7.34937 14.0162 7.38115C14.0924 7.41293 14.1616 7.4595 14.2198 7.51821H14.2324Z" fill="white"/>
</svg>
