<svg width="36" height="18" viewBox="0 0 36 18" fill="none" xmlns="http://www.w3.org/2000/svg">
<g opacity="0.8">
<g clip-path="url(#clip0_633_3238)">
<g opacity="0.4">
<path fill-rule="evenodd" clip-rule="evenodd" d="M33.8442 3.1756C30.9707 -0.184104 26.0689 -0.983541 22.2635 1.28489C22.0787 1.39873 22.019 1.63416 22.1301 1.81992C22.2412 2.00206 22.481 2.0626 22.6664 1.95083C26.1442 -0.122012 30.6234 0.607571 33.2493 3.67855C35.8751 6.74745 35.8751 11.2517 33.2493 14.3253C30.6234 17.3942 26.1442 18.1248 22.6664 16.052C22.481 15.9397 22.2412 15.9997 22.1301 16.1818C22.019 16.3655 22.0787 16.6056 22.2635 16.7158C26.0689 18.9832 30.9712 18.1869 33.8447 14.8272C36.7182 11.4665 36.7182 6.53634 33.8447 3.17663L33.8442 3.1756ZM29.9111 6.84421C29.9122 5.26397 28.4705 4.21306 26.6073 4.21306H25.4906C25.2746 4.21306 25.0996 4.38536 25.0996 4.60217C25.0996 4.81897 25.2746 4.98869 25.4906 4.98869H26.6073C28.0816 4.98869 29.1309 5.75553 29.1309 6.81731C29.0904 7.38752 28.8111 7.94117 28.3552 8.33753C27.8994 8.72767 27.305 8.92378 26.7033 8.87928C26.4879 8.86273 26.3004 9.02468 26.2849 9.23838C26.2688 9.45053 26.4302 9.63939 26.6457 9.65544C27.4545 9.71339 28.254 9.45105 28.8671 8.92378C29.4797 8.39755 29.8561 7.64727 29.9117 6.84421H29.9111ZM28.5162 10.9739H26.4282C26.2122 10.9739 26.0372 11.1477 26.0372 11.3604C26.0372 11.573 26.2122 11.7479 26.4282 11.7479H28.5162C28.7316 11.7479 28.9071 11.5756 28.9071 11.3604C28.9071 11.1451 28.7321 10.9739 28.5162 10.9739Z" fill="#7BC486"/>
</g>
<g opacity="0.7">
<path fill-rule="evenodd" clip-rule="evenodd" d="M24.9151 3.1756C22.041 -0.184104 17.1392 -0.983541 13.3338 1.28489C13.149 1.39873 13.0893 1.63416 13.2004 1.81992C13.3115 2.00206 13.5514 2.0626 13.7367 1.95083C17.2145 -0.122012 21.6937 0.607571 24.3196 3.67855C26.9455 6.74745 26.9455 11.2517 24.3196 14.3253C21.6937 17.3942 17.2145 18.1248 13.7367 16.052C13.5514 15.9397 13.3115 15.9997 13.2004 16.1818C13.0893 16.3655 13.149 16.6056 13.3338 16.7158C17.1397 18.9832 22.041 18.1869 24.9151 14.8272C27.7886 11.4665 27.7886 6.53634 24.9151 3.17663V3.1756ZM20.982 6.84421C20.9825 5.26397 19.5413 4.21306 17.6776 4.21306H16.5609C16.3449 4.21306 16.17 4.38536 16.17 4.60217C16.17 4.81897 16.3449 4.98869 16.5609 4.98869H17.6776C19.152 4.98869 20.2012 5.75553 20.2012 6.81731C20.1607 7.38752 19.8808 7.94117 19.425 8.33753C18.9692 8.72767 18.3748 8.92378 17.7736 8.87928C17.5587 8.86273 17.3708 9.02468 17.3552 9.23838C17.3391 9.45053 17.5005 9.63939 17.716 9.65544C18.5248 9.71339 19.3243 9.45105 19.9369 8.92378C20.55 8.39755 20.9259 7.64727 20.982 6.84421ZM19.587 10.9739H17.499C17.283 10.9739 17.1081 11.1477 17.1081 11.3604C17.1081 11.573 17.283 11.7479 17.499 11.7479H19.587C19.803 11.7479 19.9774 11.5756 19.9774 11.3604C19.9774 11.1451 19.8025 10.9739 19.587 10.9739Z" fill="#7BC486"/>
</g>
<path fill-rule="evenodd" clip-rule="evenodd" d="M9.06645 0C4.05924 0 0 4.02875 0 8.99871C0 13.9687 4.05924 17.9984 9.06645 17.9984C14.0737 17.9984 18.1329 13.9713 18.1329 8.99871C18.1329 4.02616 14.0737 0 9.06645 0ZM9.06645 17.2228C4.49117 17.2228 0.781841 13.5418 0.781841 8.99871C0.781841 4.45563 4.49066 0.777704 9.06645 0.777704C13.6422 0.777704 17.3516 4.45718 17.3516 8.99871C17.3516 13.5402 13.6422 17.2228 9.06645 17.2228ZM8.7425 4.21244H7.46954C7.04384 4.21244 6.69912 4.55239 6.69912 4.97565V10.9732H6.47589C6.25992 10.9732 6.08497 11.1471 6.08497 11.3598C6.08497 11.5724 6.25992 11.7473 6.47589 11.7473H6.69912V12.867C6.69912 13.0833 6.87408 13.2556 7.09004 13.2556C7.30601 13.2556 7.48096 13.0833 7.48096 12.867V11.7473H10.6519C10.8679 11.7473 11.0429 11.575 11.0429 11.3598C11.0429 11.1445 10.8679 10.9732 10.6519 10.9732H7.48096V4.98807H8.7425C10.2169 4.98807 11.2661 5.75491 11.2661 6.81668C11.1514 8.04197 10.0409 8.97077 8.77157 8.87866C8.55613 8.8621 8.36871 9.02406 8.35314 9.23776C8.33704 9.44991 8.4985 9.63877 8.71395 9.65481C10.4085 9.77848 11.8906 8.53095 12.0464 6.85239C12.0479 5.26335 10.6063 4.21244 8.74302 4.21244H8.7425Z" fill="#7BC486"/>
</g>
</g>
<defs>
<clipPath id="clip0_633_3238">
<rect width="36" height="18" fill="white"/>
</clipPath>
</defs>
</svg>
