<svg width="15" height="15" viewBox="0 0 15 15" fill="none" xmlns="http://www.w3.org/2000/svg">
<path d="M14.7801 13.7193L10.7331 9.67241C11.5539 8.62415 11.9999 7.33115 11.9999 5.99979C11.9999 2.69166 9.30816 0 5.99994 0C2.69172 0 0 2.69166 0 5.99979C0 9.30792 2.69172 11.9996 5.99994 11.9996C7.3312 11.9995 8.62413 11.5539 9.67265 10.7336L13.7196 14.7805C13.8603 14.9211 14.0512 15.0001 14.2501 15C14.4491 14.9999 14.6398 14.9208 14.7805 14.7801C14.9211 14.6394 15.0001 14.4486 15 14.2496C14.9999 14.0507 14.9208 13.8599 14.7801 13.7193ZM1.49998 5.99979C1.49998 3.51813 3.51821 1.49995 5.99994 1.49995C8.48166 1.49995 10.4999 3.51813 10.4999 5.99979C10.4999 8.48145 8.48166 10.4996 5.99994 10.4996C3.51821 10.4996 1.49998 8.48145 1.49998 5.99979Z" fill="white"/>
</svg>
