<svg width="18" height="14" viewBox="0 0 18 14" fill="none" xmlns="http://www.w3.org/2000/svg">
<g clip-path="url(#clip0_2_3304)">
<path d="M18 0.584973C17.9081 0.98094 17.8085 1.37346 17.7204 1.76943C17.1383 4.40691 16.5562 7.04439 15.974 9.68188C15.7098 10.8732 15.4455 12.0646 15.1889 13.2593C15.0472 13.9136 14.1702 14.2269 13.5804 13.824C11.4396 12.3538 9.30255 10.8801 7.1617 9.40642C7.13489 9.3892 7.10809 9.3651 7.06979 9.33411C7.20766 9.22049 7.33787 9.11375 7.47192 9.00701C9.99575 6.96176 12.5234 4.91995 15.0472 2.87125C15.1545 2.78517 15.254 2.68187 15.3268 2.57169C15.4187 2.43052 15.3345 2.32034 15.1545 2.35477C14.9936 2.38576 14.8289 2.44429 14.6911 2.52349C13.4732 3.21213 12.2591 3.91109 11.0413 4.60317C8.95021 5.79796 6.85915 6.9893 4.77191 8.18753C4.64936 8.2564 4.54979 8.26672 4.41574 8.22541C3.2017 7.85354 1.98766 7.48856 0.773617 7.12014C0.428936 7.01685 0.145532 6.84469 0 6.52791V6.30755C0.149362 6.04931 0.402128 5.90814 0.693191 5.80829C5.85192 3.9834 11.0145 2.16195 16.177 0.34395C16.514 0.226882 16.8549 0.109813 17.2034 0.0306199C17.6209 -0.0623462 17.8391 0.0443926 18 0.361166V0.58153V0.584973Z" fill="white"/>
</g>
<defs>
<clipPath id="clip0_2_3304">
<rect width="18" height="14" fill="white"/>
</clipPath>
</defs>
</svg>
