<svg width="60" height="22" viewBox="0 0 60 22" fill="none" xmlns="http://www.w3.org/2000/svg">
<g  clip-path="url(#clip0_95_676)">
<g >
<path d="M0 4.74571C0 5.17524 0.346552 5.51571 0.781034 5.51571H6.15517C6.58965 5.51571 6.93621 5.85619 6.93621 6.28571V21.1776C6.93621 21.6071 7.28276 21.9476 7.71724 21.9476H12.7138C13.1483 21.9476 13.4948 21.6071 13.4948 21.1776V6.25952C13.4948 5.83 13.8414 5.48952 14.2759 5.48952H19.65C20.0845 5.48952 20.431 5.14905 20.431 4.71952V0.77C20.431 0.340476 20.0845 0 19.65 0H0.868965C0.346552 0 0 0.340476 0 0.77V4.74048V4.74571Z" fill="#252A36"/>
<path d="M34.976 5.30619C36.3208 5.19095 37.8415 5.19095 38.3277 5.30619C38.8139 5.39 39.2174 5.44762 39.2174 5.39C39.2174 5.33238 39.2174 4.70381 39.2484 3.98619C39.2794 3.26857 39.3622 2.3781 39.507 2.00619C39.6518 1.63429 39.8794 1.20476 40.0501 1.0319C40.2208 0.859048 40.4536 0.66 40.5674 0.570952C40.6812 0.487143 40.9967 0.314286 41.2553 0.199048C41.5139 0.0838095 41.5398 0 41.3122 0H24.6053C23.9484 0 23.4312 0.345714 23.4312 0.775238V21.031C23.4312 21.5181 23.7725 21.9476 24.2329 21.9476H30.1036C30.1346 21.9476 29.9898 21.4029 29.788 20.7114C29.5863 20.0252 29.4467 18.6738 29.4467 17.6995C29.4777 16.7252 29.5346 15.9186 29.5605 15.9186H32.1105C33.4553 15.9186 34.8312 15.8348 35.1156 15.7457C35.4001 15.6305 35.6898 15.3162 35.7467 15.0019C35.8036 14.6876 35.8346 13.8233 35.8346 13.0533V11.5919C35.8346 11.5343 35.607 11.5081 35.2915 11.5081H34.2053C33.8898 11.5081 33.0312 11.3352 32.2863 11.1624C31.5415 10.9633 30.626 10.3295 30.2794 9.78476C29.938 9.24 29.5656 8.15048 29.4467 7.43286C29.3587 6.71524 29.276 5.91381 29.276 5.68333C29.276 5.45286 29.307 5.25381 29.3329 5.25381H29.876C30.1346 5.25381 30.8484 5.31143 31.4225 5.36905C31.9967 5.42667 33.5691 5.39524 34.9449 5.28524L34.976 5.31143V5.30619Z" fill="#252A36"/>
<path d="M53.0845 2.34143C52.6552 1.05286 51.569 0 50.6845 0H45.6259C45.5948 0 45.4242 0.0576191 45.2845 0.115238C45.1397 0.172857 44.9121 0.345714 44.8293 0.487143C44.7414 0.628571 44.6586 0.885238 44.6586 1.0319C44.6586 1.17857 44.5707 1.85952 44.5138 2.54571C44.4569 3.2319 44.4259 4.6881 44.4569 5.86143C44.4879 7.03476 44.2293 8.94667 43.8569 10.12C43.4845 11.3195 42.6569 12.891 42.0259 13.6662C41.3948 14.4362 40.3966 15.3529 39.8276 15.751C39.2586 16.149 38.7724 16.9243 38.7414 17.5214C38.7104 18.1238 38.5707 19.1243 38.4569 19.7529C38.3431 20.3814 38.2293 20.8948 38.1983 20.9262C38.1983 20.9262 38.0845 21.1567 37.9707 21.4395C37.8569 21.7276 37.8259 21.9267 37.8828 21.9267H43.4276C43.7121 21.9267 44.0276 21.6962 44.1414 21.3819C44.2293 21.0938 44.3431 20.6695 44.4 20.4967C44.4569 20.2976 44.5707 19.8943 44.6586 19.6114C44.7466 19.3233 45.1138 19.0981 45.5173 19.0981H52.0345C52.3759 19.0981 52.7483 19.3862 52.8362 19.7529C52.95 20.0933 53.0638 20.4967 53.0948 20.6381C53.1259 20.7795 53.2397 21.1252 53.3224 21.4081C53.4104 21.6962 53.7517 21.9529 54.0931 21.9529H58.9241C59.3224 21.9529 59.581 21.6648 59.4673 21.2981C59.3535 20.9262 58.8983 19.5852 58.469 18.2967L53.0948 2.34667L53.0845 2.34143ZM47.0276 13.9752C46.6552 13.9752 46.4586 13.6348 46.5724 13.2314C46.6862 12.8333 47.1155 11.4295 47.5138 10.1148L47.5448 10.0571C47.9431 8.76857 48.3724 7.31238 48.5173 6.82524C48.6621 6.3381 48.8897 6.36952 49.0293 6.85143C49.1741 7.33857 49.5983 8.79476 50.0017 10.0833C50.4 11.3719 50.8035 12.7705 50.9173 13.1686C51.031 13.5667 50.8862 13.9124 50.5759 13.9124H48.8638C48.2328 13.97 47.4052 13.97 47.0328 13.97L47.0276 13.9752Z" fill="#252A36"/>
<path d="M42.057 2.4418C42.3881 2.4418 42.657 2.16942 42.657 1.83418C42.657 1.49894 42.3881 1.22656 42.057 1.22656C41.726 1.22656 41.457 1.49894 41.457 1.83418C41.457 2.16942 41.726 2.4418 42.057 2.4418Z" fill="#252A36"/>
</g>
</g>
<defs>
<clipPath id="clip0_95_676">
<rect width="60" height="22" fill="white"/>
</clipPath>
</defs>
</svg>
